<mxfile host="65bd71144e">
    <diagram name="Page-1" id="MMhJ-PPwS2UHwekKgkbq">
        <mxGraphModel dx="2193" dy="1913" grid="1" gridSize="10" guides="1" tooltips="1" connect="1" arrows="1" fold="1" page="1" pageScale="1" pageWidth="850" pageHeight="1100" math="0" shadow="0">
            <root>
                <mxCell id="0"/>
                <mxCell id="1" parent="0"/>
                <mxCell id="1gZ_XsKu9PzWxgzemqPo-1" value="VPC" style="sketch=0;outlineConnect=0;gradientColor=none;html=1;whiteSpace=wrap;fontSize=12;fontStyle=0;shape=mxgraph.aws4.group;grIcon=mxgraph.aws4.group_vpc;strokeColor=#879196;fillColor=none;verticalAlign=top;align=left;spacingLeft=30;fontColor=#879196;dashed=0;" parent="1" vertex="1">
                    <mxGeometry x="10" y="20" width="770" height="760" as="geometry"/>
                </mxCell>
                <mxCell id="1gZ_XsKu9PzWxgzemqPo-4" value="Availability Zone" style="fillColor=none;strokeColor=#147EBA;dashed=1;verticalAlign=top;fontStyle=0;fontColor=#147EBA;whiteSpace=wrap;html=1;" parent="1" vertex="1">
                    <mxGeometry x="80" y="70" width="260" height="760" as="geometry"/>
                </mxCell>
                <mxCell id="1gZ_XsKu9PzWxgzemqPo-5" value="Availability Zone" style="fillColor=none;strokeColor=#147EBA;dashed=1;verticalAlign=top;fontStyle=0;fontColor=#147EBA;whiteSpace=wrap;html=1;" parent="1" vertex="1">
                    <mxGeometry x="480" y="70" width="260" height="760" as="geometry"/>
                </mxCell>
                <mxCell id="1gZ_XsKu9PzWxgzemqPo-6" value="Private subnet" style="points=[[0,0],[0.25,0],[0.5,0],[0.75,0],[1,0],[1,0.25],[1,0.5],[1,0.75],[1,1],[0.75,1],[0.5,1],[0.25,1],[0,1],[0,0.75],[0,0.5],[0,0.25]];outlineConnect=0;gradientColor=none;html=1;whiteSpace=wrap;fontSize=12;fontStyle=0;container=1;pointerEvents=0;collapsible=0;recursiveResize=0;shape=mxgraph.aws4.group;grIcon=mxgraph.aws4.group_security_group;grStroke=0;strokeColor=#00A4A6;fillColor=#E6F6F7;verticalAlign=top;align=left;spacingLeft=30;fontColor=#147EBA;dashed=0;" parent="1" vertex="1">
                    <mxGeometry x="110" y="590" width="210" height="140" as="geometry"/>
                </mxCell>
                <mxCell id="1gZ_XsKu9PzWxgzemqPo-7" value="Private subnet" style="points=[[0,0],[0.25,0],[0.5,0],[0.75,0],[1,0],[1,0.25],[1,0.5],[1,0.75],[1,1],[0.75,1],[0.5,1],[0.25,1],[0,1],[0,0.75],[0,0.5],[0,0.25]];outlineConnect=0;gradientColor=none;html=1;whiteSpace=wrap;fontSize=12;fontStyle=0;container=1;pointerEvents=0;collapsible=0;recursiveResize=0;shape=mxgraph.aws4.group;grIcon=mxgraph.aws4.group_security_group;grStroke=0;strokeColor=#00A4A6;fillColor=#E6F6F7;verticalAlign=top;align=left;spacingLeft=30;fontColor=#147EBA;dashed=0;" parent="1" vertex="1">
                    <mxGeometry x="115" y="390" width="210" height="180" as="geometry"/>
                </mxCell>
                <mxCell id="1gZ_XsKu9PzWxgzemqPo-8" value="Private subnet" style="points=[[0,0],[0.25,0],[0.5,0],[0.75,0],[1,0],[1,0.25],[1,0.5],[1,0.75],[1,1],[0.75,1],[0.5,1],[0.25,1],[0,1],[0,0.75],[0,0.5],[0,0.25]];outlineConnect=0;gradientColor=none;html=1;whiteSpace=wrap;fontSize=12;fontStyle=0;container=1;pointerEvents=0;collapsible=0;recursiveResize=0;shape=mxgraph.aws4.group;grIcon=mxgraph.aws4.group_security_group;grStroke=0;strokeColor=#00A4A6;fillColor=#E6F6F7;verticalAlign=top;align=left;spacingLeft=30;fontColor=#147EBA;dashed=0;" parent="1" vertex="1">
                    <mxGeometry x="505" y="390" width="210" height="180" as="geometry"/>
                </mxCell>
                <mxCell id="1gZ_XsKu9PzWxgzemqPo-9" value="Private subnet" style="points=[[0,0],[0.25,0],[0.5,0],[0.75,0],[1,0],[1,0.25],[1,0.5],[1,0.75],[1,1],[0.75,1],[0.5,1],[0.25,1],[0,1],[0,0.75],[0,0.5],[0,0.25]];outlineConnect=0;gradientColor=none;html=1;whiteSpace=wrap;fontSize=12;fontStyle=0;container=1;pointerEvents=0;collapsible=0;recursiveResize=0;shape=mxgraph.aws4.group;grIcon=mxgraph.aws4.group_security_group;grStroke=0;strokeColor=#00A4A6;fillColor=#E6F6F7;verticalAlign=top;align=left;spacingLeft=30;fontColor=#147EBA;dashed=0;" parent="1" vertex="1">
                    <mxGeometry x="505" y="590" width="210" height="140" as="geometry"/>
                </mxCell>
                <mxCell id="1gZ_XsKu9PzWxgzemqPo-10" value="Public subnet" style="points=[[0,0],[0.25,0],[0.5,0],[0.75,0],[1,0],[1,0.25],[1,0.5],[1,0.75],[1,1],[0.75,1],[0.5,1],[0.25,1],[0,1],[0,0.75],[0,0.5],[0,0.25]];outlineConnect=0;gradientColor=none;html=1;whiteSpace=wrap;fontSize=12;fontStyle=0;container=1;pointerEvents=0;collapsible=0;recursiveResize=0;shape=mxgraph.aws4.group;grIcon=mxgraph.aws4.group_security_group;grStroke=0;strokeColor=#7AA116;fillColor=#F2F6E8;verticalAlign=top;align=left;spacingLeft=30;fontColor=#248814;dashed=0;" parent="1" vertex="1">
                    <mxGeometry x="110" y="180" width="210" height="130" as="geometry"/>
                </mxCell>
                <mxCell id="1gZ_XsKu9PzWxgzemqPo-12" value="Public subnet" style="points=[[0,0],[0.25,0],[0.5,0],[0.75,0],[1,0],[1,0.25],[1,0.5],[1,0.75],[1,1],[0.75,1],[0.5,1],[0.25,1],[0,1],[0,0.75],[0,0.5],[0,0.25]];outlineConnect=0;gradientColor=none;html=1;whiteSpace=wrap;fontSize=12;fontStyle=0;container=1;pointerEvents=0;collapsible=0;recursiveResize=0;shape=mxgraph.aws4.group;grIcon=mxgraph.aws4.group_security_group;grStroke=0;strokeColor=#7AA116;fillColor=#F2F6E8;verticalAlign=top;align=left;spacingLeft=30;fontColor=#248814;dashed=0;" parent="1" vertex="1">
                    <mxGeometry x="500" y="180" width="220" height="130" as="geometry"/>
                </mxCell>
                <mxCell id="1gZ_XsKu9PzWxgzemqPo-23" value="NAT GW" style="sketch=0;outlineConnect=0;fontColor=#232F3E;gradientColor=none;fillColor=#8C4FFF;strokeColor=none;dashed=0;verticalLabelPosition=bottom;verticalAlign=top;align=center;html=1;fontSize=12;fontStyle=0;aspect=fixed;pointerEvents=1;shape=mxgraph.aws4.nat_gateway;" parent="1gZ_XsKu9PzWxgzemqPo-12" vertex="1">
                    <mxGeometry x="10" y="70" width="39" height="39" as="geometry"/>
                </mxCell>
                <mxCell id="1gZ_XsKu9PzWxgzemqPo-26" value="Bastion Host" style="outlineConnect=0;dashed=0;verticalLabelPosition=bottom;verticalAlign=top;align=center;html=1;shape=mxgraph.aws3.ec2;fillColor=#F58534;gradientColor=none;" parent="1gZ_XsKu9PzWxgzemqPo-12" vertex="1">
                    <mxGeometry x="140" y="43.5" width="46.5" height="43" as="geometry"/>
                </mxCell>
                <mxCell id="1gZ_XsKu9PzWxgzemqPo-13" value="NAT GW" style="sketch=0;outlineConnect=0;fontColor=#232F3E;gradientColor=none;fillColor=#8C4FFF;strokeColor=none;dashed=0;verticalLabelPosition=bottom;verticalAlign=top;align=center;html=1;fontSize=12;fontStyle=0;aspect=fixed;pointerEvents=1;shape=mxgraph.aws4.nat_gateway;" parent="1" vertex="1">
                    <mxGeometry x="270" y="253" width="39" height="39" as="geometry"/>
                </mxCell>
                <mxCell id="1gZ_XsKu9PzWxgzemqPo-41" value="" style="rounded=1;arcSize=10;dashed=1;strokeColor=#ff0000;fillColor=none;gradientColor=none;dashPattern=8 4;strokeWidth=2;" parent="1" vertex="1">
                    <mxGeometry x="-70" y="590" width="740" height="110" as="geometry"/>
                </mxCell>
                <mxCell id="1gZ_XsKu9PzWxgzemqPo-43" value="DB Layer Security Group" style="text;html=1;align=center;verticalAlign=middle;whiteSpace=wrap;rounded=0;" parent="1" vertex="1">
                    <mxGeometry x="-160" y="640" width="90" height="30" as="geometry"/>
                </mxCell>
                <mxCell id="1gZ_XsKu9PzWxgzemqPo-44" value="App Layer&lt;br&gt;Security Group" style="text;html=1;align=center;verticalAlign=middle;whiteSpace=wrap;rounded=0;" parent="1" vertex="1">
                    <mxGeometry x="-160" y="435" width="90" height="30" as="geometry"/>
                </mxCell>
                <mxCell id="1gZ_XsKu9PzWxgzemqPo-45" value="Load balancer Security Group" style="text;html=1;align=center;verticalAlign=middle;whiteSpace=wrap;rounded=0;" parent="1" vertex="1">
                    <mxGeometry x="-160" y="210" width="90" height="30" as="geometry"/>
                </mxCell>
                <mxCell id="1gZ_XsKu9PzWxgzemqPo-46" value="" style="rounded=1;arcSize=10;dashed=1;strokeColor=#ff0000;fillColor=none;gradientColor=none;dashPattern=8 4;strokeWidth=2;" parent="1" vertex="1">
                    <mxGeometry x="610" y="210" width="270" height="90" as="geometry"/>
                </mxCell>
                <mxCell id="1gZ_XsKu9PzWxgzemqPo-47" value="Bastion Host&amp;nbsp;&lt;br&gt;Security Group" style="text;html=1;align=center;verticalAlign=middle;whiteSpace=wrap;rounded=0;" parent="1" vertex="1">
                    <mxGeometry x="890" y="210" width="90" height="30" as="geometry"/>
                </mxCell>
                <mxCell id="1gZ_XsKu9PzWxgzemqPo-42" value="" style="rounded=1;arcSize=10;dashed=1;strokeColor=#ff0000;fillColor=none;gradientColor=none;dashPattern=8 4;strokeWidth=2;" parent="1" vertex="1">
                    <mxGeometry x="-60" y="141" width="530" height="120" as="geometry"/>
                </mxCell>
                <mxCell id="1gZ_XsKu9PzWxgzemqPo-52" value="Region EU-Central" style="points=[[0,0],[0.25,0],[0.5,0],[0.75,0],[1,0],[1,0.25],[1,0.5],[1,0.75],[1,1],[0.75,1],[0.5,1],[0.25,1],[0,1],[0,0.75],[0,0.5],[0,0.25]];outlineConnect=0;gradientColor=none;html=1;whiteSpace=wrap;fontSize=12;fontStyle=0;container=1;pointerEvents=0;collapsible=0;recursiveResize=0;shape=mxgraph.aws4.group;grIcon=mxgraph.aws4.group_region;strokeColor=#00A4A6;fillColor=none;verticalAlign=top;align=left;spacingLeft=30;fontColor=#147EBA;dashed=1;" parent="1" vertex="1">
                    <mxGeometry x="-150" y="-310" width="1230" height="1200" as="geometry"/>
                </mxCell>
                <mxCell id="1gZ_XsKu9PzWxgzemqPo-53" value="AWS Cognito&amp;nbsp;&lt;br&gt;Authentication" style="sketch=0;points=[[0,0,0],[0.25,0,0],[0.5,0,0],[0.75,0,0],[1,0,0],[0,1,0],[0.25,1,0],[0.5,1,0],[0.75,1,0],[1,1,0],[0,0.25,0],[0,0.5,0],[0,0.75,0],[1,0.25,0],[1,0.5,0],[1,0.75,0]];outlineConnect=0;fontColor=#232F3E;fillColor=#DD344C;strokeColor=#ffffff;dashed=0;verticalLabelPosition=bottom;verticalAlign=top;align=center;html=1;fontSize=12;fontStyle=0;aspect=fixed;shape=mxgraph.aws4.resourceIcon;resIcon=mxgraph.aws4.cognito;" parent="1gZ_XsKu9PzWxgzemqPo-52" vertex="1">
                    <mxGeometry x="1010" y="360" width="90" height="90" as="geometry"/>
                </mxCell>
                <mxCell id="1gZ_XsKu9PzWxgzemqPo-66" style="edgeStyle=orthogonalEdgeStyle;rounded=0;orthogonalLoop=1;jettySize=auto;html=1;" parent="1gZ_XsKu9PzWxgzemqPo-52" source="1gZ_XsKu9PzWxgzemqPo-56" edge="1">
                    <mxGeometry relative="1" as="geometry">
                        <mxPoint x="559" y="470" as="targetPoint"/>
                    </mxGeometry>
                </mxCell>
                <mxCell id="1gZ_XsKu9PzWxgzemqPo-56" value="AWS&lt;br&gt;Web Application firewall" style="sketch=0;points=[[0,0,0],[0.25,0,0],[0.5,0,0],[0.75,0,0],[1,0,0],[0,1,0],[0.25,1,0],[0.5,1,0],[0.75,1,0],[1,1,0],[0,0.25,0],[0,0.5,0],[0,0.75,0],[1,0.25,0],[1,0.5,0],[1,0.75,0]];outlineConnect=0;fontColor=#232F3E;fillColor=#DD344C;strokeColor=#ffffff;dashed=0;verticalLabelPosition=bottom;verticalAlign=top;align=center;html=1;fontSize=12;fontStyle=0;aspect=fixed;shape=mxgraph.aws4.resourceIcon;resIcon=mxgraph.aws4.waf;" parent="1gZ_XsKu9PzWxgzemqPo-52" vertex="1">
                    <mxGeometry x="520" y="90" width="78" height="78" as="geometry"/>
                </mxCell>
                <mxCell id="1gZ_XsKu9PzWxgzemqPo-20" value="Loadbalancer" style="outlineConnect=0;dashed=0;verticalLabelPosition=bottom;verticalAlign=top;align=center;html=1;shape=mxgraph.aws3.application_load_balancer;fillColor=#F58534;gradientColor=none;" parent="1gZ_XsKu9PzWxgzemqPo-52" vertex="1">
                    <mxGeometry x="530" y="480" width="60.5" height="62" as="geometry"/>
                </mxCell>
                <mxCell id="1gZ_XsKu9PzWxgzemqPo-60" value="" style="endArrow=classic;startArrow=classic;html=1;rounded=0;exitX=0.5;exitY=0;exitDx=0;exitDy=0;exitPerimeter=0;entryX=0;entryY=0.5;entryDx=0;entryDy=0;entryPerimeter=0;" parent="1gZ_XsKu9PzWxgzemqPo-52" source="1gZ_XsKu9PzWxgzemqPo-20" edge="1">
                    <mxGeometry width="50" height="50" relative="1" as="geometry">
                        <mxPoint x="550" y="610" as="sourcePoint"/>
                        <mxPoint x="1010" y="415" as="targetPoint"/>
                        <Array as="points">
                            <mxPoint x="560" y="410"/>
                        </Array>
                    </mxGeometry>
                </mxCell>
                <mxCell id="1gZ_XsKu9PzWxgzemqPo-67" value="Amazon Cloudwatch&lt;br&gt;for logging and monitoring" style="sketch=0;points=[[0,0,0],[0.25,0,0],[0.5,0,0],[0.75,0,0],[1,0,0],[0,1,0],[0.25,1,0],[0.5,1,0],[0.75,1,0],[1,1,0],[0,0.25,0],[0,0.5,0],[0,0.75,0],[1,0.25,0],[1,0.5,0],[1,0.75,0]];points=[[0,0,0],[0.25,0,0],[0.5,0,0],[0.75,0,0],[1,0,0],[0,1,0],[0.25,1,0],[0.5,1,0],[0.75,1,0],[1,1,0],[0,0.25,0],[0,0.5,0],[0,0.75,0],[1,0.25,0],[1,0.5,0],[1,0.75,0]];outlineConnect=0;fontColor=#232F3E;fillColor=#E7157B;strokeColor=#ffffff;dashed=0;verticalLabelPosition=bottom;verticalAlign=top;align=center;html=1;fontSize=12;fontStyle=0;aspect=fixed;shape=mxgraph.aws4.resourceIcon;resIcon=mxgraph.aws4.cloudwatch_2;" parent="1gZ_XsKu9PzWxgzemqPo-52" vertex="1">
                    <mxGeometry x="1060" y="110" width="78" height="78" as="geometry"/>
                </mxCell>
                <mxCell id="1gZ_XsKu9PzWxgzemqPo-68" value="AWS GuadDuty&lt;br&gt;ML service &lt;br&gt;to monitor &amp;amp;analyz&lt;span style=&quot;background-color: initial;&quot;&gt;e threats&lt;/span&gt;" style="sketch=0;points=[[0,0,0],[0.25,0,0],[0.5,0,0],[0.75,0,0],[1,0,0],[0,1,0],[0.25,1,0],[0.5,1,0],[0.75,1,0],[1,1,0],[0,0.25,0],[0,0.5,0],[0,0.75,0],[1,0.25,0],[1,0.5,0],[1,0.75,0]];outlineConnect=0;fontColor=#232F3E;fillColor=#DD344C;strokeColor=#ffffff;dashed=0;verticalLabelPosition=bottom;verticalAlign=top;align=center;html=1;fontSize=12;fontStyle=0;aspect=fixed;shape=mxgraph.aws4.resourceIcon;resIcon=mxgraph.aws4.guardduty;" parent="1gZ_XsKu9PzWxgzemqPo-52" vertex="1">
                    <mxGeometry x="880" y="100" width="78" height="78" as="geometry"/>
                </mxCell>
                <mxCell id="1gZ_XsKu9PzWxgzemqPo-32" style="edgeStyle=orthogonalEdgeStyle;rounded=0;orthogonalLoop=1;jettySize=auto;html=1;exitX=0.5;exitY=1;exitDx=0;exitDy=0;exitPerimeter=0;entryX=0.5;entryY=0;entryDx=0;entryDy=0;entryPerimeter=0;" parent="1gZ_XsKu9PzWxgzemqPo-52" source="1gZ_XsKu9PzWxgzemqPo-20" edge="1">
                    <mxGeometry relative="1" as="geometry">
                        <mxPoint x="315" y="730" as="targetPoint"/>
                    </mxGeometry>
                </mxCell>
                <mxCell id="1gZ_XsKu9PzWxgzemqPo-33" style="edgeStyle=orthogonalEdgeStyle;rounded=0;orthogonalLoop=1;jettySize=auto;html=1;exitX=0.5;exitY=1;exitDx=0;exitDy=0;exitPerimeter=0;entryX=0.5;entryY=0;entryDx=0;entryDy=0;entryPerimeter=0;" parent="1gZ_XsKu9PzWxgzemqPo-52" source="1gZ_XsKu9PzWxgzemqPo-20" edge="1">
                    <mxGeometry relative="1" as="geometry">
                        <mxPoint x="715" y="730" as="targetPoint"/>
                    </mxGeometry>
                </mxCell>
                <mxCell id="1gZ_XsKu9PzWxgzemqPo-70" value="Amazon ECR" style="sketch=0;points=[[0,0,0],[0.25,0,0],[0.5,0,0],[0.75,0,0],[1,0,0],[0,1,0],[0.25,1,0],[0.5,1,0],[0.75,1,0],[1,1,0],[0,0.25,0],[0,0.5,0],[0,0.75,0],[1,0.25,0],[1,0.5,0],[1,0.75,0]];outlineConnect=0;fontColor=#232F3E;fillColor=#ED7100;strokeColor=#ffffff;dashed=0;verticalLabelPosition=bottom;verticalAlign=top;align=center;html=1;fontSize=12;fontStyle=0;aspect=fixed;shape=mxgraph.aws4.resourceIcon;resIcon=mxgraph.aws4.ecr;" parent="1gZ_XsKu9PzWxgzemqPo-52" vertex="1">
                    <mxGeometry x="1050" y="920" width="78" height="78" as="geometry"/>
                </mxCell>
                <mxCell id="1gZ_XsKu9PzWxgzemqPo-77" style="edgeStyle=orthogonalEdgeStyle;rounded=0;orthogonalLoop=1;jettySize=auto;html=1;exitX=0.75;exitY=0;exitDx=0;exitDy=0;exitPerimeter=0;entryX=0.75;entryY=0;entryDx=0;entryDy=0;entryPerimeter=0;" parent="1gZ_XsKu9PzWxgzemqPo-52" target="1gZ_XsKu9PzWxgzemqPo-70" edge="1">
                    <mxGeometry relative="1" as="geometry">
                        <mxPoint x="327.5" y="730" as="sourcePoint"/>
                    </mxGeometry>
                </mxCell>
                <mxCell id="1gZ_XsKu9PzWxgzemqPo-78" style="edgeStyle=orthogonalEdgeStyle;rounded=0;orthogonalLoop=1;jettySize=auto;html=1;exitX=1;exitY=0;exitDx=0;exitDy=0;exitPerimeter=0;entryX=0;entryY=0.5;entryDx=0;entryDy=0;entryPerimeter=0;" parent="1gZ_XsKu9PzWxgzemqPo-52" target="1gZ_XsKu9PzWxgzemqPo-70" edge="1">
                    <mxGeometry relative="1" as="geometry">
                        <mxPoint x="740" y="730" as="sourcePoint"/>
                    </mxGeometry>
                </mxCell>
                <mxCell id="1gZ_XsKu9PzWxgzemqPo-101" value="Read Replica" style="sketch=0;points=[[0,0,0],[0.25,0,0],[0.5,0,0],[0.75,0,0],[1,0,0],[0,1,0],[0.25,1,0],[0.5,1,0],[0.75,1,0],[1,1,0],[0,0.25,0],[0,0.5,0],[0,0.75,0],[1,0.25,0],[1,0.5,0],[1,0.75,0]];outlineConnect=0;fontColor=#232F3E;fillColor=#C925D1;strokeColor=#ffffff;dashed=0;verticalLabelPosition=bottom;verticalAlign=top;align=center;html=1;fontSize=12;fontStyle=0;aspect=fixed;shape=mxgraph.aws4.resourceIcon;resIcon=mxgraph.aws4.rds;" parent="1gZ_XsKu9PzWxgzemqPo-52" vertex="1">
                    <mxGeometry x="690" y="934" width="50" height="50" as="geometry"/>
                </mxCell>
                <mxCell id="1gZ_XsKu9PzWxgzemqPo-100" value="Primary RDS" style="sketch=0;points=[[0,0,0],[0.25,0,0],[0.5,0,0],[0.75,0,0],[1,0,0],[0,1,0],[0.25,1,0],[0.5,1,0],[0.75,1,0],[1,1,0],[0,0.25,0],[0,0.5,0],[0,0.75,0],[1,0.25,0],[1,0.5,0],[1,0.75,0]];outlineConnect=0;fontColor=#232F3E;fillColor=#C925D1;strokeColor=#ffffff;dashed=0;verticalLabelPosition=bottom;verticalAlign=top;align=center;html=1;fontSize=12;fontStyle=0;aspect=fixed;shape=mxgraph.aws4.resourceIcon;resIcon=mxgraph.aws4.rds;" parent="1gZ_XsKu9PzWxgzemqPo-52" vertex="1">
                    <mxGeometry x="330" y="934" width="50" height="50" as="geometry"/>
                </mxCell>
                <mxCell id="1gZ_XsKu9PzWxgzemqPo-102" style="edgeStyle=orthogonalEdgeStyle;rounded=0;orthogonalLoop=1;jettySize=auto;html=1;exitX=0.5;exitY=1;exitDx=0;exitDy=0;exitPerimeter=0;entryX=0.25;entryY=0;entryDx=0;entryDy=0;entryPerimeter=0;" parent="1gZ_XsKu9PzWxgzemqPo-52" target="1gZ_XsKu9PzWxgzemqPo-100" edge="1">
                    <mxGeometry relative="1" as="geometry">
                        <mxPoint x="315" y="780" as="sourcePoint"/>
                    </mxGeometry>
                </mxCell>
                <mxCell id="1gZ_XsKu9PzWxgzemqPo-103" style="edgeStyle=orthogonalEdgeStyle;rounded=0;orthogonalLoop=1;jettySize=auto;html=1;exitX=0.5;exitY=1;exitDx=0;exitDy=0;exitPerimeter=0;entryX=0.5;entryY=0;entryDx=0;entryDy=0;entryPerimeter=0;" parent="1gZ_XsKu9PzWxgzemqPo-52" target="1gZ_XsKu9PzWxgzemqPo-100" edge="1">
                    <mxGeometry relative="1" as="geometry">
                        <mxPoint x="715" y="780" as="sourcePoint"/>
                    </mxGeometry>
                </mxCell>
                <mxCell id="1gZ_XsKu9PzWxgzemqPo-104" value="" style="endArrow=classic;startArrow=classic;html=1;rounded=0;entryX=0;entryY=0.5;entryDx=0;entryDy=0;entryPerimeter=0;exitX=1;exitY=0.5;exitDx=0;exitDy=0;exitPerimeter=0;" parent="1gZ_XsKu9PzWxgzemqPo-52" source="1gZ_XsKu9PzWxgzemqPo-100" target="1gZ_XsKu9PzWxgzemqPo-101" edge="1">
                    <mxGeometry width="50" height="50" relative="1" as="geometry">
                        <mxPoint x="570" y="930" as="sourcePoint"/>
                        <mxPoint x="620" y="880" as="targetPoint"/>
                    </mxGeometry>
                </mxCell>
                <mxCell id="1gZ_XsKu9PzWxgzemqPo-48" value="Route table&lt;br&gt;connected to Private subnets&lt;br&gt;connects to NAT GW on&lt;br&gt;0.0.0.0" style="sketch=0;outlineConnect=0;fontColor=#232F3E;gradientColor=none;strokeColor=#232F3E;fillColor=#ffffff;dashed=0;verticalLabelPosition=bottom;verticalAlign=top;align=center;html=1;fontSize=12;fontStyle=0;aspect=fixed;shape=mxgraph.aws4.resourceIcon;resIcon=mxgraph.aws4.route_table;" parent="1gZ_XsKu9PzWxgzemqPo-52" vertex="1">
                    <mxGeometry x="1150" y="725" width="60" height="60" as="geometry"/>
                </mxCell>
                <mxCell id="1gZ_XsKu9PzWxgzemqPo-49" value="Route table&lt;br&gt;connected to Public subnets&lt;br&gt;connects to Internet on&lt;br&gt;0.0.0.0" style="sketch=0;outlineConnect=0;fontColor=#232F3E;gradientColor=none;strokeColor=#232F3E;fillColor=#ffffff;dashed=0;verticalLabelPosition=bottom;verticalAlign=top;align=center;html=1;fontSize=12;fontStyle=0;aspect=fixed;shape=mxgraph.aws4.resourceIcon;resIcon=mxgraph.aws4.route_table;" parent="1gZ_XsKu9PzWxgzemqPo-52" vertex="1">
                    <mxGeometry x="1150" y="490" width="60" height="60" as="geometry"/>
                </mxCell>
                <mxCell id="3" value="EKS" style="sketch=0;points=[[0,0,0],[0.25,0,0],[0.5,0,0],[0.75,0,0],[1,0,0],[0,1,0],[0.25,1,0],[0.5,1,0],[0.75,1,0],[1,1,0],[0,0.25,0],[0,0.5,0],[0,0.75,0],[1,0.25,0],[1,0.5,0],[1,0.75,0]];outlineConnect=0;fontColor=#232F3E;gradientColor=#F78E04;gradientDirection=north;fillColor=#D05C17;strokeColor=#ffffff;dashed=0;verticalLabelPosition=bottom;verticalAlign=top;align=center;html=1;fontSize=12;fontStyle=0;aspect=fixed;shape=mxgraph.aws4.resourceIcon;resIcon=mxgraph.aws4.eks;" parent="1gZ_XsKu9PzWxgzemqPo-52" vertex="1">
                    <mxGeometry x="688" y="740" width="54" height="54" as="geometry"/>
                </mxCell>
                <mxCell id="1gZ_XsKu9PzWxgzemqPo-39" value="" style="rounded=1;arcSize=10;dashed=1;strokeColor=#ff0000;fillColor=none;gradientColor=none;dashPattern=8 4;strokeWidth=2;" parent="1gZ_XsKu9PzWxgzemqPo-52" vertex="1">
                    <mxGeometry x="90" y="725" width="720" height="120" as="geometry"/>
                </mxCell>
                <mxCell id="1gZ_XsKu9PzWxgzemqPo-61" value="" style="sketch=0;outlineConnect=0;fontColor=#232F3E;gradientColor=none;fillColor=#232F3D;strokeColor=none;dashed=0;verticalLabelPosition=bottom;verticalAlign=top;align=center;html=1;fontSize=12;fontStyle=0;aspect=fixed;pointerEvents=1;shape=mxgraph.aws4.users;" parent="1" vertex="1">
                    <mxGeometry x="1164" y="-745" width="70" height="70" as="geometry"/>
                </mxCell>
                <mxCell id="1gZ_XsKu9PzWxgzemqPo-62" value="devices" style="sketch=0;outlineConnect=0;gradientColor=none;fontColor=#545B64;strokeColor=none;fillColor=#879196;dashed=0;verticalLabelPosition=bottom;verticalAlign=top;align=center;html=1;fontSize=12;fontStyle=0;aspect=fixed;shape=mxgraph.aws4.illustration_devices;pointerEvents=1" parent="1" vertex="1">
                    <mxGeometry x="1060" y="-790" width="100" height="73" as="geometry"/>
                </mxCell>
                <mxCell id="1gZ_XsKu9PzWxgzemqPo-106" value="VPC" style="sketch=0;outlineConnect=0;gradientColor=none;html=1;whiteSpace=wrap;fontSize=12;fontStyle=0;shape=mxgraph.aws4.group;grIcon=mxgraph.aws4.group_vpc;strokeColor=#879196;fillColor=none;verticalAlign=top;align=left;spacingLeft=30;fontColor=#879196;dashed=0;" parent="1" vertex="1">
                    <mxGeometry x="1550" y="20" width="770" height="760" as="geometry"/>
                </mxCell>
                <mxCell id="1gZ_XsKu9PzWxgzemqPo-107" value="Availability Zone" style="fillColor=none;strokeColor=#147EBA;dashed=1;verticalAlign=top;fontStyle=0;fontColor=#147EBA;whiteSpace=wrap;html=1;" parent="1" vertex="1">
                    <mxGeometry x="1620" y="70" width="260" height="760" as="geometry"/>
                </mxCell>
                <mxCell id="1gZ_XsKu9PzWxgzemqPo-108" value="Availability Zone" style="fillColor=none;strokeColor=#147EBA;dashed=1;verticalAlign=top;fontStyle=0;fontColor=#147EBA;whiteSpace=wrap;html=1;" parent="1" vertex="1">
                    <mxGeometry x="2020" y="70" width="260" height="760" as="geometry"/>
                </mxCell>
                <mxCell id="1gZ_XsKu9PzWxgzemqPo-109" value="Private subnet" style="points=[[0,0],[0.25,0],[0.5,0],[0.75,0],[1,0],[1,0.25],[1,0.5],[1,0.75],[1,1],[0.75,1],[0.5,1],[0.25,1],[0,1],[0,0.75],[0,0.5],[0,0.25]];outlineConnect=0;gradientColor=none;html=1;whiteSpace=wrap;fontSize=12;fontStyle=0;container=1;pointerEvents=0;collapsible=0;recursiveResize=0;shape=mxgraph.aws4.group;grIcon=mxgraph.aws4.group_security_group;grStroke=0;strokeColor=#00A4A6;fillColor=#E6F6F7;verticalAlign=top;align=left;spacingLeft=30;fontColor=#147EBA;dashed=0;" parent="1" vertex="1">
                    <mxGeometry x="1650" y="590" width="210" height="140" as="geometry"/>
                </mxCell>
                <mxCell id="1gZ_XsKu9PzWxgzemqPo-110" value="Private subnet" style="points=[[0,0],[0.25,0],[0.5,0],[0.75,0],[1,0],[1,0.25],[1,0.5],[1,0.75],[1,1],[0.75,1],[0.5,1],[0.25,1],[0,1],[0,0.75],[0,0.5],[0,0.25]];outlineConnect=0;gradientColor=none;html=1;whiteSpace=wrap;fontSize=12;fontStyle=0;container=1;pointerEvents=0;collapsible=0;recursiveResize=0;shape=mxgraph.aws4.group;grIcon=mxgraph.aws4.group_security_group;grStroke=0;strokeColor=#00A4A6;fillColor=#E6F6F7;verticalAlign=top;align=left;spacingLeft=30;fontColor=#147EBA;dashed=0;" parent="1" vertex="1">
                    <mxGeometry x="1655" y="390" width="210" height="180" as="geometry"/>
                </mxCell>
                <mxCell id="1gZ_XsKu9PzWxgzemqPo-111" value="Private subnet" style="points=[[0,0],[0.25,0],[0.5,0],[0.75,0],[1,0],[1,0.25],[1,0.5],[1,0.75],[1,1],[0.75,1],[0.5,1],[0.25,1],[0,1],[0,0.75],[0,0.5],[0,0.25]];outlineConnect=0;gradientColor=none;html=1;whiteSpace=wrap;fontSize=12;fontStyle=0;container=1;pointerEvents=0;collapsible=0;recursiveResize=0;shape=mxgraph.aws4.group;grIcon=mxgraph.aws4.group_security_group;grStroke=0;strokeColor=#00A4A6;fillColor=#E6F6F7;verticalAlign=top;align=left;spacingLeft=30;fontColor=#147EBA;dashed=0;" parent="1" vertex="1">
                    <mxGeometry x="2045" y="390" width="210" height="180" as="geometry"/>
                </mxCell>
                <mxCell id="1gZ_XsKu9PzWxgzemqPo-112" value="Private subnet" style="points=[[0,0],[0.25,0],[0.5,0],[0.75,0],[1,0],[1,0.25],[1,0.5],[1,0.75],[1,1],[0.75,1],[0.5,1],[0.25,1],[0,1],[0,0.75],[0,0.5],[0,0.25]];outlineConnect=0;gradientColor=none;html=1;whiteSpace=wrap;fontSize=12;fontStyle=0;container=1;pointerEvents=0;collapsible=0;recursiveResize=0;shape=mxgraph.aws4.group;grIcon=mxgraph.aws4.group_security_group;grStroke=0;strokeColor=#00A4A6;fillColor=#E6F6F7;verticalAlign=top;align=left;spacingLeft=30;fontColor=#147EBA;dashed=0;" parent="1" vertex="1">
                    <mxGeometry x="2045" y="590" width="210" height="140" as="geometry"/>
                </mxCell>
                <mxCell id="1gZ_XsKu9PzWxgzemqPo-113" value="Public subnet" style="points=[[0,0],[0.25,0],[0.5,0],[0.75,0],[1,0],[1,0.25],[1,0.5],[1,0.75],[1,1],[0.75,1],[0.5,1],[0.25,1],[0,1],[0,0.75],[0,0.5],[0,0.25]];outlineConnect=0;gradientColor=none;html=1;whiteSpace=wrap;fontSize=12;fontStyle=0;container=1;pointerEvents=0;collapsible=0;recursiveResize=0;shape=mxgraph.aws4.group;grIcon=mxgraph.aws4.group_security_group;grStroke=0;strokeColor=#7AA116;fillColor=#F2F6E8;verticalAlign=top;align=left;spacingLeft=30;fontColor=#248814;dashed=0;" parent="1" vertex="1">
                    <mxGeometry x="1650" y="180" width="210" height="130" as="geometry"/>
                </mxCell>
                <mxCell id="1gZ_XsKu9PzWxgzemqPo-114" value="Public subnet" style="points=[[0,0],[0.25,0],[0.5,0],[0.75,0],[1,0],[1,0.25],[1,0.5],[1,0.75],[1,1],[0.75,1],[0.5,1],[0.25,1],[0,1],[0,0.75],[0,0.5],[0,0.25]];outlineConnect=0;gradientColor=none;html=1;whiteSpace=wrap;fontSize=12;fontStyle=0;container=1;pointerEvents=0;collapsible=0;recursiveResize=0;shape=mxgraph.aws4.group;grIcon=mxgraph.aws4.group_security_group;grStroke=0;strokeColor=#7AA116;fillColor=#F2F6E8;verticalAlign=top;align=left;spacingLeft=30;fontColor=#248814;dashed=0;" parent="1" vertex="1">
                    <mxGeometry x="2040" y="180" width="220" height="130" as="geometry"/>
                </mxCell>
                <mxCell id="1gZ_XsKu9PzWxgzemqPo-115" value="NAT GW" style="sketch=0;outlineConnect=0;fontColor=#232F3E;gradientColor=none;fillColor=#8C4FFF;strokeColor=none;dashed=0;verticalLabelPosition=bottom;verticalAlign=top;align=center;html=1;fontSize=12;fontStyle=0;aspect=fixed;pointerEvents=1;shape=mxgraph.aws4.nat_gateway;" parent="1gZ_XsKu9PzWxgzemqPo-114" vertex="1">
                    <mxGeometry x="10" y="70" width="39" height="39" as="geometry"/>
                </mxCell>
                <mxCell id="1gZ_XsKu9PzWxgzemqPo-116" value="Bastion Host" style="outlineConnect=0;dashed=0;verticalLabelPosition=bottom;verticalAlign=top;align=center;html=1;shape=mxgraph.aws3.ec2;fillColor=#F58534;gradientColor=none;" parent="1gZ_XsKu9PzWxgzemqPo-114" vertex="1">
                    <mxGeometry x="140" y="43.5" width="46.5" height="43" as="geometry"/>
                </mxCell>
                <mxCell id="1gZ_XsKu9PzWxgzemqPo-117" value="NAT GW" style="sketch=0;outlineConnect=0;fontColor=#232F3E;gradientColor=none;fillColor=#8C4FFF;strokeColor=none;dashed=0;verticalLabelPosition=bottom;verticalAlign=top;align=center;html=1;fontSize=12;fontStyle=0;aspect=fixed;pointerEvents=1;shape=mxgraph.aws4.nat_gateway;" parent="1" vertex="1">
                    <mxGeometry x="1810" y="253" width="39" height="39" as="geometry"/>
                </mxCell>
                <mxCell id="1gZ_XsKu9PzWxgzemqPo-118" value="" style="rounded=1;arcSize=10;dashed=1;strokeColor=#ff0000;fillColor=none;gradientColor=none;dashPattern=8 4;strokeWidth=2;" parent="1" vertex="1">
                    <mxGeometry x="1470" y="590" width="740" height="110" as="geometry"/>
                </mxCell>
                <mxCell id="1gZ_XsKu9PzWxgzemqPo-119" value="DB Layer Security Group" style="text;html=1;align=center;verticalAlign=middle;whiteSpace=wrap;rounded=0;" parent="1" vertex="1">
                    <mxGeometry x="1380" y="640" width="90" height="30" as="geometry"/>
                </mxCell>
                <mxCell id="1gZ_XsKu9PzWxgzemqPo-120" value="App Layer&lt;br&gt;Security Group" style="text;html=1;align=center;verticalAlign=middle;whiteSpace=wrap;rounded=0;" parent="1" vertex="1">
                    <mxGeometry x="1380" y="435" width="90" height="30" as="geometry"/>
                </mxCell>
                <mxCell id="1gZ_XsKu9PzWxgzemqPo-121" value="Load balancer Security Group" style="text;html=1;align=center;verticalAlign=middle;whiteSpace=wrap;rounded=0;" parent="1" vertex="1">
                    <mxGeometry x="1380" y="210" width="90" height="30" as="geometry"/>
                </mxCell>
                <mxCell id="1gZ_XsKu9PzWxgzemqPo-122" value="" style="rounded=1;arcSize=10;dashed=1;strokeColor=#ff0000;fillColor=none;gradientColor=none;dashPattern=8 4;strokeWidth=2;" parent="1" vertex="1">
                    <mxGeometry x="2150" y="210" width="270" height="90" as="geometry"/>
                </mxCell>
                <mxCell id="1gZ_XsKu9PzWxgzemqPo-123" value="Bastion Host&amp;nbsp;&lt;br&gt;Security Group" style="text;html=1;align=center;verticalAlign=middle;whiteSpace=wrap;rounded=0;" parent="1" vertex="1">
                    <mxGeometry x="2430" y="210" width="90" height="30" as="geometry"/>
                </mxCell>
                <mxCell id="1gZ_XsKu9PzWxgzemqPo-124" value="" style="rounded=1;arcSize=10;dashed=1;strokeColor=#ff0000;fillColor=none;gradientColor=none;dashPattern=8 4;strokeWidth=2;" parent="1" vertex="1">
                    <mxGeometry x="1480" y="141" width="530" height="120" as="geometry"/>
                </mxCell>
                <mxCell id="1gZ_XsKu9PzWxgzemqPo-125" value="Region EU-West" style="points=[[0,0],[0.25,0],[0.5,0],[0.75,0],[1,0],[1,0.25],[1,0.5],[1,0.75],[1,1],[0.75,1],[0.5,1],[0.25,1],[0,1],[0,0.75],[0,0.5],[0,0.25]];outlineConnect=0;gradientColor=none;html=1;whiteSpace=wrap;fontSize=12;fontStyle=0;container=1;pointerEvents=0;collapsible=0;recursiveResize=0;shape=mxgraph.aws4.group;grIcon=mxgraph.aws4.group_region;strokeColor=#00A4A6;fillColor=none;verticalAlign=top;align=left;spacingLeft=30;fontColor=#147EBA;dashed=1;" parent="1" vertex="1">
                    <mxGeometry x="1390" y="-310" width="1230" height="1200" as="geometry"/>
                </mxCell>
                <mxCell id="1gZ_XsKu9PzWxgzemqPo-126" value="AWS Cognito&amp;nbsp;&lt;br&gt;Authentication" style="sketch=0;points=[[0,0,0],[0.25,0,0],[0.5,0,0],[0.75,0,0],[1,0,0],[0,1,0],[0.25,1,0],[0.5,1,0],[0.75,1,0],[1,1,0],[0,0.25,0],[0,0.5,0],[0,0.75,0],[1,0.25,0],[1,0.5,0],[1,0.75,0]];outlineConnect=0;fontColor=#232F3E;fillColor=#DD344C;strokeColor=#ffffff;dashed=0;verticalLabelPosition=bottom;verticalAlign=top;align=center;html=1;fontSize=12;fontStyle=0;aspect=fixed;shape=mxgraph.aws4.resourceIcon;resIcon=mxgraph.aws4.cognito;" parent="1gZ_XsKu9PzWxgzemqPo-125" vertex="1">
                    <mxGeometry x="1010" y="360" width="90" height="90" as="geometry"/>
                </mxCell>
                <mxCell id="1gZ_XsKu9PzWxgzemqPo-128" style="edgeStyle=orthogonalEdgeStyle;rounded=0;orthogonalLoop=1;jettySize=auto;html=1;" parent="1gZ_XsKu9PzWxgzemqPo-125" source="1gZ_XsKu9PzWxgzemqPo-129" edge="1">
                    <mxGeometry relative="1" as="geometry">
                        <mxPoint x="559" y="470" as="targetPoint"/>
                    </mxGeometry>
                </mxCell>
                <mxCell id="1gZ_XsKu9PzWxgzemqPo-129" value="AWS&lt;br&gt;Web Application firewall" style="sketch=0;points=[[0,0,0],[0.25,0,0],[0.5,0,0],[0.75,0,0],[1,0,0],[0,1,0],[0.25,1,0],[0.5,1,0],[0.75,1,0],[1,1,0],[0,0.25,0],[0,0.5,0],[0,0.75,0],[1,0.25,0],[1,0.5,0],[1,0.75,0]];outlineConnect=0;fontColor=#232F3E;fillColor=#DD344C;strokeColor=#ffffff;dashed=0;verticalLabelPosition=bottom;verticalAlign=top;align=center;html=1;fontSize=12;fontStyle=0;aspect=fixed;shape=mxgraph.aws4.resourceIcon;resIcon=mxgraph.aws4.waf;" parent="1gZ_XsKu9PzWxgzemqPo-125" vertex="1">
                    <mxGeometry x="520" y="90" width="78" height="78" as="geometry"/>
                </mxCell>
                <mxCell id="1gZ_XsKu9PzWxgzemqPo-131" value="Loadbalancer" style="outlineConnect=0;dashed=0;verticalLabelPosition=bottom;verticalAlign=top;align=center;html=1;shape=mxgraph.aws3.application_load_balancer;fillColor=#F58534;gradientColor=none;" parent="1gZ_XsKu9PzWxgzemqPo-125" vertex="1">
                    <mxGeometry x="530" y="480" width="60.5" height="62" as="geometry"/>
                </mxCell>
                <mxCell id="1gZ_XsKu9PzWxgzemqPo-132" value="" style="endArrow=classic;startArrow=classic;html=1;rounded=0;exitX=0.5;exitY=0;exitDx=0;exitDy=0;exitPerimeter=0;entryX=0;entryY=0.5;entryDx=0;entryDy=0;entryPerimeter=0;" parent="1gZ_XsKu9PzWxgzemqPo-125" source="1gZ_XsKu9PzWxgzemqPo-131" edge="1">
                    <mxGeometry width="50" height="50" relative="1" as="geometry">
                        <mxPoint x="550" y="610" as="sourcePoint"/>
                        <mxPoint x="1010" y="415" as="targetPoint"/>
                        <Array as="points">
                            <mxPoint x="560" y="410"/>
                        </Array>
                    </mxGeometry>
                </mxCell>
                <mxCell id="1gZ_XsKu9PzWxgzemqPo-133" value="Amazon Cloudwatch&lt;br&gt;for logging and monitoring" style="sketch=0;points=[[0,0,0],[0.25,0,0],[0.5,0,0],[0.75,0,0],[1,0,0],[0,1,0],[0.25,1,0],[0.5,1,0],[0.75,1,0],[1,1,0],[0,0.25,0],[0,0.5,0],[0,0.75,0],[1,0.25,0],[1,0.5,0],[1,0.75,0]];points=[[0,0,0],[0.25,0,0],[0.5,0,0],[0.75,0,0],[1,0,0],[0,1,0],[0.25,1,0],[0.5,1,0],[0.75,1,0],[1,1,0],[0,0.25,0],[0,0.5,0],[0,0.75,0],[1,0.25,0],[1,0.5,0],[1,0.75,0]];outlineConnect=0;fontColor=#232F3E;fillColor=#E7157B;strokeColor=#ffffff;dashed=0;verticalLabelPosition=bottom;verticalAlign=top;align=center;html=1;fontSize=12;fontStyle=0;aspect=fixed;shape=mxgraph.aws4.resourceIcon;resIcon=mxgraph.aws4.cloudwatch_2;" parent="1gZ_XsKu9PzWxgzemqPo-125" vertex="1">
                    <mxGeometry x="1050" y="90" width="78" height="78" as="geometry"/>
                </mxCell>
                <mxCell id="1gZ_XsKu9PzWxgzemqPo-134" value="AWS GuadDuty&lt;br&gt;ML service &lt;br&gt;to monitor &amp;amp;analyz&lt;span style=&quot;background-color: initial;&quot;&gt;e threats&lt;/span&gt;" style="sketch=0;points=[[0,0,0],[0.25,0,0],[0.5,0,0],[0.75,0,0],[1,0,0],[0,1,0],[0.25,1,0],[0.5,1,0],[0.75,1,0],[1,1,0],[0,0.25,0],[0,0.5,0],[0,0.75,0],[1,0.25,0],[1,0.5,0],[1,0.75,0]];outlineConnect=0;fontColor=#232F3E;fillColor=#DD344C;strokeColor=#ffffff;dashed=0;verticalLabelPosition=bottom;verticalAlign=top;align=center;html=1;fontSize=12;fontStyle=0;aspect=fixed;shape=mxgraph.aws4.resourceIcon;resIcon=mxgraph.aws4.guardduty;" parent="1gZ_XsKu9PzWxgzemqPo-125" vertex="1">
                    <mxGeometry x="840" y="90" width="78" height="78" as="geometry"/>
                </mxCell>
                <mxCell id="1gZ_XsKu9PzWxgzemqPo-137" style="edgeStyle=orthogonalEdgeStyle;rounded=0;orthogonalLoop=1;jettySize=auto;html=1;exitX=0.5;exitY=1;exitDx=0;exitDy=0;exitPerimeter=0;entryX=0.5;entryY=0;entryDx=0;entryDy=0;entryPerimeter=0;" parent="1gZ_XsKu9PzWxgzemqPo-125" source="1gZ_XsKu9PzWxgzemqPo-131" edge="1">
                    <mxGeometry relative="1" as="geometry">
                        <mxPoint x="345" y="730" as="targetPoint"/>
                    </mxGeometry>
                </mxCell>
                <mxCell id="1gZ_XsKu9PzWxgzemqPo-139" style="edgeStyle=orthogonalEdgeStyle;rounded=0;orthogonalLoop=1;jettySize=auto;html=1;exitX=0.5;exitY=1;exitDx=0;exitDy=0;exitPerimeter=0;entryX=0.5;entryY=0;entryDx=0;entryDy=0;entryPerimeter=0;" parent="1gZ_XsKu9PzWxgzemqPo-125" source="1gZ_XsKu9PzWxgzemqPo-131" edge="1">
                    <mxGeometry relative="1" as="geometry">
                        <mxPoint x="715" y="730" as="targetPoint"/>
                    </mxGeometry>
                </mxCell>
                <mxCell id="1gZ_XsKu9PzWxgzemqPo-140" value="Amazon ECR" style="sketch=0;points=[[0,0,0],[0.25,0,0],[0.5,0,0],[0.75,0,0],[1,0,0],[0,1,0],[0.25,1,0],[0.5,1,0],[0.75,1,0],[1,1,0],[0,0.25,0],[0,0.5,0],[0,0.75,0],[1,0.25,0],[1,0.5,0],[1,0.75,0]];outlineConnect=0;fontColor=#232F3E;fillColor=#ED7100;strokeColor=#ffffff;dashed=0;verticalLabelPosition=bottom;verticalAlign=top;align=center;html=1;fontSize=12;fontStyle=0;aspect=fixed;shape=mxgraph.aws4.resourceIcon;resIcon=mxgraph.aws4.ecr;" parent="1gZ_XsKu9PzWxgzemqPo-125" vertex="1">
                    <mxGeometry x="1050" y="920" width="78" height="78" as="geometry"/>
                </mxCell>
                <mxCell id="1gZ_XsKu9PzWxgzemqPo-141" style="edgeStyle=orthogonalEdgeStyle;rounded=0;orthogonalLoop=1;jettySize=auto;html=1;exitX=0.75;exitY=0;exitDx=0;exitDy=0;exitPerimeter=0;entryX=0.75;entryY=0;entryDx=0;entryDy=0;entryPerimeter=0;" parent="1gZ_XsKu9PzWxgzemqPo-125" target="1gZ_XsKu9PzWxgzemqPo-140" edge="1">
                    <mxGeometry relative="1" as="geometry">
                        <mxPoint x="357.5" y="730" as="sourcePoint"/>
                    </mxGeometry>
                </mxCell>
                <mxCell id="1gZ_XsKu9PzWxgzemqPo-142" style="edgeStyle=orthogonalEdgeStyle;rounded=0;orthogonalLoop=1;jettySize=auto;html=1;exitX=1;exitY=0;exitDx=0;exitDy=0;exitPerimeter=0;entryX=0;entryY=0.5;entryDx=0;entryDy=0;entryPerimeter=0;" parent="1gZ_XsKu9PzWxgzemqPo-125" target="1gZ_XsKu9PzWxgzemqPo-140" edge="1">
                    <mxGeometry relative="1" as="geometry">
                        <mxPoint x="740" y="730" as="sourcePoint"/>
                    </mxGeometry>
                </mxCell>
                <mxCell id="1gZ_XsKu9PzWxgzemqPo-143" value="Read Replica" style="sketch=0;points=[[0,0,0],[0.25,0,0],[0.5,0,0],[0.75,0,0],[1,0,0],[0,1,0],[0.25,1,0],[0.5,1,0],[0.75,1,0],[1,1,0],[0,0.25,0],[0,0.5,0],[0,0.75,0],[1,0.25,0],[1,0.5,0],[1,0.75,0]];outlineConnect=0;fontColor=#232F3E;fillColor=#C925D1;strokeColor=#ffffff;dashed=0;verticalLabelPosition=bottom;verticalAlign=top;align=center;html=1;fontSize=12;fontStyle=0;aspect=fixed;shape=mxgraph.aws4.resourceIcon;resIcon=mxgraph.aws4.rds;" parent="1gZ_XsKu9PzWxgzemqPo-125" vertex="1">
                    <mxGeometry x="690" y="934" width="50" height="50" as="geometry"/>
                </mxCell>
                <mxCell id="1gZ_XsKu9PzWxgzemqPo-144" value="Primary RDS" style="sketch=0;points=[[0,0,0],[0.25,0,0],[0.5,0,0],[0.75,0,0],[1,0,0],[0,1,0],[0.25,1,0],[0.5,1,0],[0.75,1,0],[1,1,0],[0,0.25,0],[0,0.5,0],[0,0.75,0],[1,0.25,0],[1,0.5,0],[1,0.75,0]];outlineConnect=0;fontColor=#232F3E;fillColor=#C925D1;strokeColor=#ffffff;dashed=0;verticalLabelPosition=bottom;verticalAlign=top;align=center;html=1;fontSize=12;fontStyle=0;aspect=fixed;shape=mxgraph.aws4.resourceIcon;resIcon=mxgraph.aws4.rds;" parent="1gZ_XsKu9PzWxgzemqPo-125" vertex="1">
                    <mxGeometry x="330" y="934" width="50" height="50" as="geometry"/>
                </mxCell>
                <mxCell id="1gZ_XsKu9PzWxgzemqPo-145" style="edgeStyle=orthogonalEdgeStyle;rounded=0;orthogonalLoop=1;jettySize=auto;html=1;exitX=0.5;exitY=1;exitDx=0;exitDy=0;exitPerimeter=0;entryX=0.25;entryY=0;entryDx=0;entryDy=0;entryPerimeter=0;" parent="1gZ_XsKu9PzWxgzemqPo-125" target="1gZ_XsKu9PzWxgzemqPo-144" edge="1">
                    <mxGeometry relative="1" as="geometry">
                        <mxPoint x="345" y="780" as="sourcePoint"/>
                    </mxGeometry>
                </mxCell>
                <mxCell id="1gZ_XsKu9PzWxgzemqPo-146" style="edgeStyle=orthogonalEdgeStyle;rounded=0;orthogonalLoop=1;jettySize=auto;html=1;exitX=0.5;exitY=1;exitDx=0;exitDy=0;exitPerimeter=0;entryX=0.5;entryY=0;entryDx=0;entryDy=0;entryPerimeter=0;" parent="1gZ_XsKu9PzWxgzemqPo-125" target="1gZ_XsKu9PzWxgzemqPo-144" edge="1">
                    <mxGeometry relative="1" as="geometry">
                        <mxPoint x="715" y="780" as="sourcePoint"/>
                    </mxGeometry>
                </mxCell>
                <mxCell id="1gZ_XsKu9PzWxgzemqPo-147" value="" style="rounded=1;arcSize=10;dashed=1;strokeColor=#ff0000;fillColor=none;gradientColor=none;dashPattern=8 4;strokeWidth=2;" parent="1gZ_XsKu9PzWxgzemqPo-125" vertex="1">
                    <mxGeometry x="100" y="720" width="720" height="120" as="geometry"/>
                </mxCell>
                <mxCell id="1gZ_XsKu9PzWxgzemqPo-148" value="" style="endArrow=classic;startArrow=classic;html=1;rounded=0;entryX=0;entryY=0.5;entryDx=0;entryDy=0;entryPerimeter=0;exitX=1;exitY=0.5;exitDx=0;exitDy=0;exitPerimeter=0;" parent="1gZ_XsKu9PzWxgzemqPo-125" source="1gZ_XsKu9PzWxgzemqPo-144" target="1gZ_XsKu9PzWxgzemqPo-143" edge="1">
                    <mxGeometry width="50" height="50" relative="1" as="geometry">
                        <mxPoint x="570" y="930" as="sourcePoint"/>
                        <mxPoint x="620" y="880" as="targetPoint"/>
                    </mxGeometry>
                </mxCell>
                <mxCell id="1gZ_XsKu9PzWxgzemqPo-149" value="Route table&lt;br&gt;connected to Private subnets&lt;br&gt;connects to NAT GW on&lt;br&gt;0.0.0.0" style="sketch=0;outlineConnect=0;fontColor=#232F3E;gradientColor=none;strokeColor=#232F3E;fillColor=#ffffff;dashed=0;verticalLabelPosition=bottom;verticalAlign=top;align=center;html=1;fontSize=12;fontStyle=0;aspect=fixed;shape=mxgraph.aws4.resourceIcon;resIcon=mxgraph.aws4.route_table;" parent="1gZ_XsKu9PzWxgzemqPo-125" vertex="1">
                    <mxGeometry x="1150" y="725" width="60" height="60" as="geometry"/>
                </mxCell>
                <mxCell id="1gZ_XsKu9PzWxgzemqPo-150" value="Route table&lt;br&gt;connected to Public subnets&lt;br&gt;connects to Internet on&lt;br&gt;0.0.0.0" style="sketch=0;outlineConnect=0;fontColor=#232F3E;gradientColor=none;strokeColor=#232F3E;fillColor=#ffffff;dashed=0;verticalLabelPosition=bottom;verticalAlign=top;align=center;html=1;fontSize=12;fontStyle=0;aspect=fixed;shape=mxgraph.aws4.resourceIcon;resIcon=mxgraph.aws4.route_table;" parent="1gZ_XsKu9PzWxgzemqPo-125" vertex="1">
                    <mxGeometry x="1150" y="490" width="60" height="60" as="geometry"/>
                </mxCell>
                <mxCell id="4" value="EKS" style="sketch=0;points=[[0,0,0],[0.25,0,0],[0.5,0,0],[0.75,0,0],[1,0,0],[0,1,0],[0.25,1,0],[0.5,1,0],[0.75,1,0],[1,1,0],[0,0.25,0],[0,0.5,0],[0,0.75,0],[1,0.25,0],[1,0.5,0],[1,0.75,0]];outlineConnect=0;fontColor=#232F3E;gradientColor=#F78E04;gradientDirection=north;fillColor=#D05C17;strokeColor=#ffffff;dashed=0;verticalLabelPosition=bottom;verticalAlign=top;align=center;html=1;fontSize=12;fontStyle=0;aspect=fixed;shape=mxgraph.aws4.resourceIcon;resIcon=mxgraph.aws4.eks;" parent="1gZ_XsKu9PzWxgzemqPo-125" vertex="1">
                    <mxGeometry x="322" y="730" width="58" height="58" as="geometry"/>
                </mxCell>
                <mxCell id="6" value="EKS" style="sketch=0;points=[[0,0,0],[0.25,0,0],[0.5,0,0],[0.75,0,0],[1,0,0],[0,1,0],[0.25,1,0],[0.5,1,0],[0.75,1,0],[1,1,0],[0,0.25,0],[0,0.5,0],[0,0.75,0],[1,0.25,0],[1,0.5,0],[1,0.75,0]];outlineConnect=0;fontColor=#232F3E;gradientColor=#F78E04;gradientDirection=north;fillColor=#D05C17;strokeColor=#ffffff;dashed=0;verticalLabelPosition=bottom;verticalAlign=top;align=center;html=1;fontSize=12;fontStyle=0;aspect=fixed;shape=mxgraph.aws4.resourceIcon;resIcon=mxgraph.aws4.eks;" parent="1gZ_XsKu9PzWxgzemqPo-125" vertex="1">
                    <mxGeometry x="700" y="730" width="58" height="58" as="geometry"/>
                </mxCell>
                <mxCell id="1gZ_XsKu9PzWxgzemqPo-151" value="Disaster recovery region with scaled down resources" style="text;html=1;align=center;verticalAlign=middle;resizable=0;points=[];autosize=1;strokeColor=none;fillColor=none;fontSize=24;" parent="1" vertex="1">
                    <mxGeometry x="1430" y="-370" width="590" height="40" as="geometry"/>
                </mxCell>
                <mxCell id="1gZ_XsKu9PzWxgzemqPo-163" style="edgeStyle=orthogonalEdgeStyle;rounded=0;orthogonalLoop=1;jettySize=auto;html=1;exitX=0;exitY=0.5;exitDx=0;exitDy=0;exitPerimeter=0;" parent="1" source="1gZ_XsKu9PzWxgzemqPo-152" target="1gZ_XsKu9PzWxgzemqPo-56" edge="1">
                    <mxGeometry relative="1" as="geometry"/>
                </mxCell>
                <mxCell id="1gZ_XsKu9PzWxgzemqPo-152" value="" style="sketch=0;points=[[0,0,0],[0.25,0,0],[0.5,0,0],[0.75,0,0],[1,0,0],[0,1,0],[0.25,1,0],[0.5,1,0],[0.75,1,0],[1,1,0],[0,0.25,0],[0,0.5,0],[0,0.75,0],[1,0.25,0],[1,0.5,0],[1,0.75,0]];outlineConnect=0;fontColor=#232F3E;fillColor=#8C4FFF;strokeColor=#ffffff;dashed=0;verticalLabelPosition=bottom;verticalAlign=top;align=center;html=1;fontSize=12;fontStyle=0;aspect=fixed;shape=mxgraph.aws4.resourceIcon;resIcon=mxgraph.aws4.route_53;" parent="1" vertex="1">
                    <mxGeometry x="1164" y="-560" width="80" height="80" as="geometry"/>
                </mxCell>
                <mxCell id="1gZ_XsKu9PzWxgzemqPo-153" style="edgeStyle=orthogonalEdgeStyle;rounded=0;orthogonalLoop=1;jettySize=auto;html=1;entryX=0.449;entryY=0.128;entryDx=0;entryDy=0;entryPerimeter=0;" parent="1" source="1gZ_XsKu9PzWxgzemqPo-61" target="1gZ_XsKu9PzWxgzemqPo-152" edge="1">
                    <mxGeometry relative="1" as="geometry"/>
                </mxCell>
                <mxCell id="1gZ_XsKu9PzWxgzemqPo-155" style="edgeStyle=orthogonalEdgeStyle;rounded=0;orthogonalLoop=1;jettySize=auto;html=1;exitX=1;exitY=0.5;exitDx=0;exitDy=0;exitPerimeter=0;entryX=0.5;entryY=0;entryDx=0;entryDy=0;entryPerimeter=0;" parent="1" source="1gZ_XsKu9PzWxgzemqPo-152" target="1gZ_XsKu9PzWxgzemqPo-129" edge="1">
                    <mxGeometry relative="1" as="geometry"/>
                </mxCell>
                <mxCell id="1gZ_XsKu9PzWxgzemqPo-156" value="In case of Disaster Recovery manual DNS switching" style="text;html=1;align=center;verticalAlign=middle;resizable=0;points=[];autosize=1;strokeColor=none;fillColor=none;" parent="1" vertex="1">
                    <mxGeometry x="1470" y="-550" width="300" height="30" as="geometry"/>
                </mxCell>
                <mxCell id="1gZ_XsKu9PzWxgzemqPo-63" value="AWS Cloudfront&lt;br&gt;CDN&lt;br&gt;caches content at edge locations" style="sketch=0;points=[[0,0,0],[0.25,0,0],[0.5,0,0],[0.75,0,0],[1,0,0],[0,1,0],[0.25,1,0],[0.5,1,0],[0.75,1,0],[1,1,0],[0,0.25,0],[0,0.5,0],[0,0.75,0],[1,0.25,0],[1,0.5,0],[1,0.75,0]];outlineConnect=0;fontColor=#232F3E;fillColor=#8C4FFF;strokeColor=#ffffff;dashed=0;verticalLabelPosition=bottom;verticalAlign=top;align=center;html=1;fontSize=12;fontStyle=0;aspect=fixed;shape=mxgraph.aws4.resourceIcon;resIcon=mxgraph.aws4.cloudfront;" parent="1" vertex="1">
                    <mxGeometry x="1166" y="-420" width="78" height="78" as="geometry"/>
                </mxCell>
                <mxCell id="1gZ_XsKu9PzWxgzemqPo-69" value="AWS Shield&lt;br&gt;DDos Attacks" style="sketch=0;points=[[0,0,0],[0.25,0,0],[0.5,0,0],[0.75,0,0],[1,0,0],[0,1,0],[0.25,1,0],[0.5,1,0],[0.75,1,0],[1,1,0],[0,0.25,0],[0,0.5,0],[0,0.75,0],[1,0.25,0],[1,0.5,0],[1,0.75,0]];outlineConnect=0;fontColor=#232F3E;fillColor=#DD344C;strokeColor=#ffffff;dashed=0;verticalLabelPosition=bottom;verticalAlign=top;align=center;html=1;fontSize=12;fontStyle=0;aspect=fixed;shape=mxgraph.aws4.resourceIcon;resIcon=mxgraph.aws4.shield;" parent="1" vertex="1">
                    <mxGeometry x="1170" y="-220" width="78" height="78" as="geometry"/>
                </mxCell>
                <mxCell id="1gZ_XsKu9PzWxgzemqPo-162" style="edgeStyle=orthogonalEdgeStyle;rounded=0;orthogonalLoop=1;jettySize=auto;html=1;exitX=0.5;exitY=1;exitDx=0;exitDy=0;exitPerimeter=0;entryX=0.5;entryY=0;entryDx=0;entryDy=0;entryPerimeter=0;" parent="1" source="1gZ_XsKu9PzWxgzemqPo-152" target="1gZ_XsKu9PzWxgzemqPo-63" edge="1">
                    <mxGeometry relative="1" as="geometry"/>
                </mxCell>
                <mxCell id="2" value="EKS" style="sketch=0;points=[[0,0,0],[0.25,0,0],[0.5,0,0],[0.75,0,0],[1,0,0],[0,1,0],[0.25,1,0],[0.5,1,0],[0.75,1,0],[1,1,0],[0,0.25,0],[0,0.5,0],[0,0.75,0],[1,0.25,0],[1,0.5,0],[1,0.75,0]];outlineConnect=0;fontColor=#232F3E;gradientColor=#F78E04;gradientDirection=north;fillColor=#D05C17;strokeColor=#ffffff;dashed=0;verticalLabelPosition=bottom;verticalAlign=top;align=center;html=1;fontSize=12;fontStyle=0;aspect=fixed;shape=mxgraph.aws4.resourceIcon;resIcon=mxgraph.aws4.eks;" parent="1" vertex="1">
                    <mxGeometry x="160" y="423" width="54" height="54" as="geometry"/>
                </mxCell>
            </root>
        </mxGraphModel>
    </diagram>
</mxfile>